# xmcd
#
# Track frame offsets: 
#        150
#        23434
#        46756
#        71067
#        95657
#        118091
#        148773
#        173768
#        199298
#        222004
#
# Disc length: 3296 seconds
#
# Revision: 0
# Processed by: cddbd v1.5.2PL0 Copyright (c) Steve Scherf et al.
# Submitted via: ExactAudioCopy v1.0b3
#
DISCID=8d0cde0a
DTITLE=Ngoc Son, Huong Lan - Sao Long Con Thuong
DYEAR=1997
DGENRE=
TTITLE0=Ngoc Son - Tinh yeu mat nai
TTITLE1=Chiec cau chieu mua
TTITLE2=Ngoc Son - Yeu em tron doi
TTITLE3=Huong Lan - Nguoi da nhu mo
TTITLE4=Ngoc Son - Hat cat mong manh
TTITLE5=Ngoc Son - Sao long con thuong
TTITLE6=Thuyen hoa
TTITLE7=Ngoc Son - Con duong ky niem tinh ta
TTITLE8=Huong Lan - Lam lo
TTITLE9=Ngoc Son - Ben cau nho nguoi
EXTD=
EXTT0=
EXTT1=
EXTT2=
EXTT3=
EXTT4=
EXTT5=
EXTT6=
EXTT7=
EXTT8=
EXTT9=
PLAYORDER=
